<?xml version="1.0" encoding="UTF-8" standalone="no"?>
<svg
   height="512"
   width="512"
   version="1.1"
   id="svg239"
   sodipodi:docname="smart_toy_FILL0_wght400_GRAD0_opsz48(1).svg"
   xml:space="preserve"
   inkscape:version="1.2.1 (9c6d41e410, 2022-07-14)"
   xmlns:inkscape="http://www.inkscape.org/namespaces/inkscape"
   xmlns:sodipodi="http://sodipodi.sourceforge.net/DTD/sodipodi-0.dtd"
   xmlns="http://www.w3.org/2000/svg"
   xmlns:svg="http://www.w3.org/2000/svg"><defs
     id="defs243" /><sodipodi:namedview
     id="namedview241"
     pagecolor="#ffffff"
     bordercolor="#666666"
     borderopacity="1.0"
     inkscape:showpageshadow="2"
     inkscape:pageopacity="0.0"
     inkscape:pagecheckerboard="0"
     inkscape:deskcolor="#d1d1d1"
     showgrid="false"
     inkscape:zoom="0.61458333"
     inkscape:cx="-94.372881"
     inkscape:cy="405.15254"
     inkscape:window-width="1920"
     inkscape:window-height="1027"
     inkscape:window-x="1912"
     inkscape:window-y="-8"
     inkscape:window-maximized="1"
     inkscape:current-layer="svg239" /><rect
     style="opacity:1;fill:#0f1923;fill-opacity:1;stroke:#ef4958;stroke-width:20.427;stroke-dasharray:none;stroke-opacity:1"
     id="rect468"
     width="491.573"
     height="491.573"
     x="10.213501"
     y="10.213501" /><path
     d="m 255.99999,421.23114 q -29.8334,0 -55.53601,-14.22823 -25.70263,-14.22824 -38.09497,-40.84882 h -53.24114 v -27.53853 h 42.22574 q -3.21282,-11.93334 -3.21282,-24.0962 V 289.96418 H 108.6689 v -27.53852 h 39.47189 q 0,-13.31028 0.22948,-26.39109 0.22948,-13.0808 3.90129,-25.93211 h -43.14369 v -27.53853 h 55.07705 q 6.42565,-12.85129 16.98209,-22.48979 10.55643,-9.63848 23.40775,-16.06413 l -35.3411,-34.88213 18.35901,-18.35902 43.14368,43.14369 q 12.85132,-4.58976 25.93211,-4.58976 13.0808,0 25.93211,4.58976 l 43.14368,-43.14369 18.35902,18.35902 -34.88214,34.88213 q 12.85132,6.42565 22.7193,16.29361 9.86795,9.86798 17.21156,22.26031 h 54.15911 v 27.53853 h -43.60266 q 4.13077,12.85131 3.90126,25.93211 -0.22948,13.08081 -0.22948,26.39109 h 39.93088 v 27.53852 h -39.93088 q 0,12.39234 0.22948,24.55518 0.22951,12.16286 -2.98333,24.0962 h 42.68473 v 27.53853 h -53.24115 q -11.93336,27.07955 -37.86547,41.0783 -25.9321,13.99875 -56.22449,13.99875 z m 0,-27.53853 q 33.04624,0 56.45397,-23.17825 23.40776,-23.17826 23.40776,-56.22449 v -76.64889 q 0,-33.04623 -23.40776,-56.22448 -23.40773,-23.17826 -56.45398,-23.17826 -33.04622,0 -56.45396,23.17826 -23.40774,23.17825 -23.40774,56.22448 v 76.64889 q 0,33.04623 23.40774,56.22449 23.40774,23.17825 56.45397,23.17825 z m -36.71802,-64.25654 h 73.43607 v -27.53853 h -73.43607 z m 0,-79.40274 h 73.43607 V 222.4948 h -73.43607 z m 36.71802,26.16159 h 0.2295 -0.2295 0.2295 -0.2295 0.2295 -0.2295 0.2295 z"
     id="path2627"
     style="fill:#ef4958;fill-opacity:1;stroke-width:9.17951" /></svg>
